<svg width="26" height="26" viewBox="0 0 26 26" fill="none" xmlns="http://www.w3.org/2000/svg">
<path d="M17.3825 3.85336C18.5932 3.85696 19.7532 4.33775 20.6093 5.19073C21.4654 6.04371 21.9479 7.19956 21.9515 8.40585V17.5099C21.9479 18.7162 21.4654 19.872 20.6093 20.725C19.7532 21.578 18.5932 22.0588 17.3825 22.0624H8.24541C7.03474 22.0588 5.87469 21.578 5.01861 20.725C4.16254 19.872 3.68 18.7162 3.67638 17.5099V8.40585C3.68 7.19956 4.16254 6.04371 5.01861 5.19073C5.87469 4.33775 7.03474 3.85696 8.24541 3.85336H17.3825ZM17.3825 2.03265H8.24541C4.72735 2.03265 1.84906 4.90052 1.84906 8.40585V17.5099C1.84906 21.0152 4.72735 23.8831 8.24541 23.8831H17.3825C20.9006 23.8831 23.7789 21.0152 23.7789 17.5099V8.40585C23.7789 4.90052 20.9006 2.03265 17.3825 2.03265Z" fill="black"/>
<path d="M18.7531 8.40585C18.482 8.40585 18.217 8.32576 17.9917 8.1757C17.7663 8.02564 17.5906 7.81236 17.4868 7.56282C17.3831 7.31328 17.356 7.03869 17.4088 6.77378C17.4617 6.50887 17.5923 6.26553 17.784 6.07454C17.9756 5.88355 18.2199 5.75349 18.4857 5.70079C18.7516 5.6481 19.0272 5.67514 19.2776 5.77851C19.5281 5.88187 19.7421 6.05691 19.8927 6.28149C20.0433 6.50607 20.1237 6.7701 20.1237 7.0402C20.1241 7.21965 20.0889 7.39741 20.0202 7.56327C19.9514 7.72913 19.8505 7.87984 19.7232 8.00673C19.5958 8.13361 19.4446 8.23419 19.2781 8.30269C19.1116 8.37118 18.9332 8.40624 18.7531 8.40585ZM12.814 9.31596C13.5369 9.31596 14.2436 9.52956 14.8446 9.92973C15.4457 10.3299 15.9142 10.8987 16.1909 11.5642C16.4675 12.2296 16.5399 12.9619 16.3989 13.6684C16.2578 14.3748 15.9097 15.0237 15.3985 15.5331C14.8874 16.0424 14.2361 16.3893 13.527 16.5298C12.818 16.6703 12.0831 16.5982 11.4152 16.3225C10.7473 16.0469 10.1765 15.5801 9.77484 14.9812C9.3732 14.3823 9.15883 13.6782 9.15883 12.9579C9.15987 11.9923 9.5453 11.0666 10.2305 10.3838C10.9158 9.70103 11.8449 9.317 12.814 9.31596ZM12.814 7.49526C11.7296 7.49526 10.6697 7.81563 9.76808 8.41587C8.86649 9.01611 8.1638 9.86925 7.74884 10.8674C7.33389 11.8656 7.22532 12.9639 7.43686 14.0236C7.6484 15.0832 8.17055 16.0565 8.93729 16.8205C9.70402 17.5845 10.6809 18.1047 11.7444 18.3155C12.8079 18.5263 13.9102 18.4181 14.912 18.0046C15.9138 17.5912 16.77 16.891 17.3725 15.9927C17.9749 15.0944 18.2964 14.0383 18.2964 12.9579C18.2964 11.5091 17.7188 10.1197 16.6906 9.09522C15.6625 8.07078 14.268 7.49526 12.814 7.49526Z" fill="black"/>
</svg>
